<?xml version="1.0" encoding="UTF-8"?>
<!DOCTYPE svg PUBLIC "-//W3C//DTD SVG 1.1//EN" "http://www.w3.org/Graphics/SVG/1.1/DTD/svg11.dtd">
<!-- Creator: CorelDRAW X5 -->
<svg xmlns="http://www.w3.org/2000/svg" xml:space="preserve" width="135.467mm" height="48.26mm" style="shape-rendering:geometricPrecision; text-rendering:geometricPrecision; image-rendering:optimizeQuality; fill-rule:evenodd; clip-rule:evenodd"
viewBox="0 0 13547 4826"
 xmlns:xlink="http://www.w3.org/1999/xlink"
 xmlns:svg="http://www.w3.org/2000/svg">
 <defs>
  <style type="text/css">
   <![CDATA[
    .fil0 {fill:#003A77;fill-rule:nonzero}
    .fil1 {fill:#F29100;fill-rule:nonzero}
   ]]>
  </style>
 </defs>
 <g id="Layer_x0020_1">
  <metadata id="CorelCorpID_0Corel-Layer"/>
 </g>
 <g id="svg2">
  <metadata id="CorelCorpID_1Corel-Layer"/>
  <path class="fil0" d="M7728 3596l-297 0 8 -49c14,-83 35,-215 169,-215 56,0 114,14 169,31 14,4 27,8 41,12l64 21 43 -252 -10 -2c-41,-12 -87,-27 -138,-41 -68,-17 -149,-31 -243,-27 -138,4 -388,35 -464,303l-52 219 -153 0 -43 264 153 0 -153 931 411 0 153 -931 299 0 43 -264z"/>
  <path class="fil0" d="M10090 3594l-10 0 -128 0c-97,-2 -159,21 -221,80l-50 70 27 -153 -417 0 -194 1195 411 0 99 -611c33,-208 206,-301 338,-312 47,-4 99,-2 99,-2l35 -204 10 -64z"/>
  <path class="fil0" d="M8887 3632c-99,-47 -235,-60 -345,-60 -194,0 -388,29 -578,68l-54 10 -50 285c0,0 330,-130 545,-128 47,0 103,-6 142,12 39,16 58,41 50,97 -8,43 -37,76 -124,103 -87,27 -198,45 -314,70 -134,29 -279,70 -384,149 -72,54 -124,126 -140,225 -27,161 21,266 140,320 64,29 146,43 248,43 155,0 277,-56 330,-76l64 -202c0,0 -134,56 -235,56 -116,0 -169,-41 -155,-130 14,-87 107,-132 239,-169 64,-19 132,-35 194,-50 58,-14 87,-37 87,-37l-99 576 409 0 155 -896c23,-144 -29,-221 -126,-266z"/>
  <path class="fil0" d="M11789 3561c-157,2 -279,43 -394,153l-27 27 -10 -33c-47,-107 -149,-147 -301,-147 -161,0 -347,93 -402,184l25 -155 -413 0 -186 1127 -10 68 10 0 400 0 105 -638c8,-52 68,-272 285,-272 76,0 99,72 80,184l-122 726 411 0 109 -654c8,-52 60,-256 277,-256 43,0 114,62 97,173l-114 737 386 -2 153 -904c37,-221 -109,-320 -359,-318z"/>
  <path class="fil0" d="M13417 3623c-99,-47 -235,-60 -345,-60 -194,0 -388,29 -578,68l-21 4 -76 258 35 -10c165,-56 338,-97 508,-97 48,0 101,4 142,23 39,16 66,50 58,107 -8,41 -49,68 -136,95 -87,27 -198,45 -314,70 -227,50 -485,132 -524,373 -41,248 93,363 388,363 155,0 277,-54 330,-74l74 -223c0,0 -144,74 -246,74 -116,0 -169,-41 -155,-130 14,-87 107,-130 239,-169 64,-17 132,-33 194,-50 23,-6 47,-14 70,-23l21 -14 -103 578 409 0 155 -898c4,-23 4,-43 4,-62l0 -4c0,-101 -47,-161 -130,-200z"/>
  <path class="fil0" d="M856 4154l489 -561 -433 0 -382 464 113 -681c0,0 17,-52 -31,-120 -47,-68 -136,-60 -136,-60l-208 -2 -268 1593 406 0 85 -491c0,0 60,153 246,316 231,200 413,200 413,200l60 -349c0,0 -74,-31 -153,-87 -142,-95 -200,-223 -200,-223z"/>
  <path class="fil0" d="M1787 3601c-16,-4 -31,-6 -39,-8l-16 0 -192 0 -194 1186 -2 8 2 0 406 0 163 -978c0,0 4,-6 4,-10 2,-6 2,-16 2,-29 0,-23 -8,-58 -37,-101 -29,-39 -66,-58 -97,-68z"/>
  <path class="fil0" d="M3716 3563c-155,2 -277,41 -392,153l-27 25 -12 -31c-47,-107 -149,-147 -301,-147 -161,0 -345,93 -402,182l27 -153 -415 0 -196 1195 413 0 103 -638c8,-52 70,-272 285,-272 76,0 101,72 83,184l-122 726 411 0 107 -654c8,-52 60,-256 279,-256 41,0 114,62 95,173l-114 737 402 0 149 -904c37,-221 -122,-322 -371,-320z"/>
  <path class="fil0" d="M4622 3601c-17,-4 -29,-6 -39,-8l-14 0 -192 0 -196 1195 411 0 165 -978c0,0 2,-27 2,-39 -2,-23 -8,-58 -39,-101 -29,-39 -66,-58 -97,-68z"/>
  <path class="fil0" d="M6081 3623c-101,-47 -235,-60 -347,-60 -194,0 -388,29 -576,68l-56 10 -50 285c0,0 330,-130 547,-128 45,2 101,-6 142,12 39,16 58,41 47,99 -6,41 -35,74 -124,101 -85,27 -198,45 -312,70 -229,50 -485,132 -526,373 -39,248 93,363 388,363 157,0 279,-54 330,-74l64 -204c0,0 -134,56 -233,56 -116,0 -171,-41 -157,-130 14,-87 109,-130 239,-169 66,-17 132,-35 194,-50 58,-14 87,-35 87,-35l-99 576 411 0 153 -898c25,-142 -27,-219 -124,-266z"/>
  <path class="fil1" d="M10877 2957c-35,-33 -76,-70 -120,-105 -43,-37 -89,-72 -132,-105 -21,-17 -39,-31 -58,-43 29,-25 -29,-89 -66,-58 -2,2 -2,4 -4,6 -45,-33 -39,-29 -91,-66 21,-14 23,-25 27,-45 0,-25 -19,-45 -43,-45 -10,0 -19,4 -27,8 -10,10 -17,25 -17,39 -39,-27 -78,-54 -118,-80 -47,-33 -95,-64 -138,-91 -4,-2 -6,-4 -10,-6l0 0 0 -8c0,-17 -23,-62 -62,-70 -39,-8 -54,4 -62,8l-8 -4 -45 -25c14,-109 -6,-105 -27,-120 -14,-10 -39,-17 -64,-12 -14,4 -29,12 -37,29 -9,23 -12,29 -12,31 -15,-10 -54,-35 -76,-35 10,-27 -2,-52 -23,-68 -29,-21 -72,-25 -91,-2 -2,0 -4,2 -6,2 -29,2 -33,-6 -56,-17 21,-103 -31,-122 -80,-126l-21 0c-27,0 -41,29 -58,45 -25,-10 -47,-21 -70,-29 -43,-16 -85,-33 -132,-49 -14,-6 -31,-12 -45,-19 15,-19 23,-41 23,-66 0,-58 -50,-105 -109,-105l-6 0c-23,2 -45,10 -62,25 -23,19 -37,43 -39,74 -12,-6 -25,-10 -35,-12 -33,-12 -58,-21 -85,-29 -19,-4 -35,-10 -58,-17 -8,-4 -21,-6 -33,-10 47,-120 -29,-182 -101,-182l-21 0c-15,4 -29,8 -39,17 -29,19 -43,56 -43,93 0,6 0,12 2,17 -19,-4 -25,-6 -35,-8 -6,0 -14,-2 -27,-6 6,-64 -17,-105 -50,-126 -19,-12 -41,-19 -62,-19 -17,0 -31,2 -41,10 -10,4 -19,10 -25,16 -23,19 -23,37 -35,54 -14,-4 -27,-6 -39,-8 -27,-8 -49,-12 -74,-19 -16,-4 -33,-6 -52,-10 -10,-2 -21,-4 -31,-6 19,-21 25,-23 8,-101 -6,-33 -27,-56 -54,-68 -23,-10 -47,-14 -72,-12 -14,2 -29,6 -43,12 -31,14 -68,91 -52,126 -18,9 -48,2 -52,5 -4,-43 -14,-77 -25,-102 126,29 192,-151 37,-188 -74,-16 -107,80 -85,128 -12,-8 -31,-12 -47,-12 -23,-2 -45,0 -58,4 25,-93 -31,-136 -89,-140 -68,-4 -140,45 -103,138 -37,0 -16,8 -41,0 -4,0 -10,-2 -16,-4 0,-56 -6,-144 -111,-144 -23,0 -41,6 -56,16 -41,25 -56,78 -56,120 -39,0 -52,-6 -68,0 6,-14 10,-6 10,-47 0,-25 -14,-56 -39,-74 -16,-14 -37,-25 -64,-23 -20,0 -39,5 -56,13 -6,8 -12,15 -20,20 -8,8 -17,13 -27,16 -7,11 -12,36 -10,46 6,35 6,20 12,37 -27,-8 -17,-8 -54,-2 3,-35 1,-62 -15,-85 -10,-7 -27,-18 -35,-30 -18,-12 -39,-18 -57,-16 -25,3 -46,10 -62,21 17,-18 27,-43 27,-71 0,-56 -43,-101 -95,-101 -33,0 -64,19 -80,47 -8,17 -14,35 -14,54 0,21 6,39 14,54 16,29 47,47 80,47 18,0 35,-6 50,-15 -13,14 -21,31 -21,49 0,41 0,47 6,62 -19,-4 -29,-6 -35,-6 -10,-2 -12,2 -35,10 8,-17 -2,-31 -2,-50 0,-33 -16,-58 -43,-72 -21,-12 -45,-19 -72,-19 -56,0 -95,52 -95,93 0,39 -4,33 6,49 -17,-8 -6,-2 -25,-2l-6 0c-12,2 -21,4 -31,8 6,-14 10,-31 10,-47 0,-39 -21,-70 -50,-87 -17,-10 -37,-14 -58,-14 -60,0 -111,35 -111,99 0,23 6,46 16,65 14,11 26,25 36,41 15,11 32,18 51,18 10,0 23,-2 33,-4 -8,17 -12,37 -12,56l0 6c-8,4 -45,10 -45,-4 0,-15 -10,-44 -26,-71 -14,-10 -27,-24 -36,-41 -17,-13 -36,-20 -58,-16l-2 0c-23,4 -43,12 -60,25 -8,10 -18,19 -29,25 -15,18 -23,41 -23,67 0,14 4,29 8,41 -16,2 -23,4 -29,6 -8,0 -14,2 -31,4 6,-14 12,-25 -8,-68 -8,-21 -21,-41 -35,-56 -17,-12 -35,-23 -62,-25l-10 0c-19,0 -37,4 -54,12 -37,19 -64,56 -64,99 0,31 0,56 18,76 -10,2 -21,2 -29,4 -29,6 -52,8 -74,12 -19,4 -39,8 -62,12 -10,2 -23,4 -35,8 -4,-25 -17,-41 -37,-54 -16,-8 -39,-12 -66,-14l-8 0c-21,0 -39,4 -54,14 -37,23 -58,66 -58,109l0 15c-8,2 -14,2 -17,4 -8,0 -8,-2 -27,4 0,-8 -4,-70 -54,-101 -14,-8 -33,-14 -58,-14 -56,-2 -105,33 -105,93 0,25 -6,54 8,72l-54 17 -43 14 -64 21 -60 19c-2,2 -25,-91 -97,-89l-2 0c-74,2 -109,37 -109,97 0,27 2,56 16,74 -16,6 -33,14 -49,21 -47,19 -89,35 -136,54 -17,8 -35,16 -54,25 -14,-29 -29,-43 -68,-43l-8 0c-64,6 -97,60 -74,116 -21,10 -35,14 -56,25 -6,-6 -12,-10 -18,-12 -8,-6 -19,-8 -31,-8 -25,0 -45,8 -62,23 -14,14 -23,33 -19,54 -8,6 -16,10 -25,10 -18,8 -35,16 -56,29 -23,-35 -21,-45 -62,-54 -6,-2 -12,-4 -21,-4 -39,-6 -70,37 -70,83 0,27 4,31 25,45 -27,14 -37,21 -62,35 -6,-4 -10,-8 -19,-10 -8,-2 -21,-4 -39,-4 -29,0 -68,31 -68,74 0,4 2,10 2,17 -12,6 -25,14 -35,23 -47,29 -91,58 -134,85 -30,20 -60,41 -91,62 0,4 0,8 -2,12 -10,25 -23,37 -45,37 -6,0 -12,-1 -18,-4 -26,18 -52,37 -79,58 -4,-8 -10,-10 -19,-10 -6,0 -16,2 -27,2 -21,0 -47,27 -47,54 0,10 -4,8 4,16 -17,10 -35,23 -54,35 -43,33 -91,70 -134,109 -45,39 -89,76 -122,109 -10,10 -21,19 -29,27 -23,23 -39,37 -41,41 2,0 12,-4 33,-16 12,-8 25,-15 37,-23 39,-23 81,-47 122,-70 43,-25 89,-50 134,-74 41,-23 83,-43 124,-64 39,-21 76,-39 116,-58 45,-21 91,-43 138,-64 43,-19 89,-39 134,-58 45,-21 93,-39 140,-58 47,-19 97,-37 147,-54 39,-14 78,-29 118,-41 15,-6 29,-10 43,-14 31,-10 62,-21 93,-31 49,-14 97,-29 149,-43 41,-12 87,-25 130,-37 45,-10 91,-23 136,-33 47,-12 95,-25 145,-35 52,-10 103,-23 157,-33 21,-4 41,-8 64,-12 14,-4 29,-6 43,-8 49,-10 99,-19 151,-29 19,-2 39,-6 58,-8 27,-2 54,-8 80,-12 25,-2 50,-6 74,-10 21,-4 41,-6 62,-10 21,-2 43,-6 66,-8 23,-4 47,-6 72,-10 21,-2 41,-4 62,-8 25,-2 50,-6 74,-8 23,-4 47,-6 74,-8 21,-2 43,-6 64,-8 21,-2 111,-10 136,-14 23,-2 47,-4 72,-6 19,-2 39,-4 60,-4 70,-6 140,-12 213,-19 23,-2 47,-2 70,-4 64,-4 128,-8 192,-12 27,-2 54,-4 80,-4 56,-4 113,-6 171,-8l144 0c47,0 95,0 140,2 52,0 101,2 153,4 60,2 122,6 184,8 47,4 95,6 144,10 47,2 97,6 147,10 89,8 177,16 266,27 25,2 48,4 72,8 25,2 52,6 76,8 17,2 33,4 52,6 25,4 49,8 74,10 25,4 50,8 74,12 21,2 43,6 66,8 21,4 41,8 62,10 25,4 52,8 76,12 25,6 52,10 76,14 21,2 39,4 60,8 45,8 91,17 134,27 21,4 39,8 58,10 27,6 56,12 85,19 25,6 50,12 74,16 21,6 41,10 62,17 47,10 93,21 138,33 45,10 89,23 132,35 49,12 99,27 149,41 45,14 91,27 136,41 33,10 64,21 97,31 50,16 99,35 149,52 45,17 91,33 136,50 47,19 95,37 142,56 47,19 93,39 138,58 45,21 91,39 134,60 47,23 93,43 138,66 41,21 83,41 124,64 45,23 89,48 132,72 39,23 80,45 120,68 17,10 33,21 49,31 -12,-17 -29,-35 -49,-54zm-3380 -1453l0 0c-6,-2 -10,-4 -16,-8 4,-21 0,-33 -10,-45l27 0 25 0c4,33 -8,56 -25,54zm2267 690l0 0c1,0 3,0 5,4 0,0 -2,-2 -5,-4z"/>
  <path class="fil1" d="M10877 2899c10,0 17,-8 17,-19 0,-10 -6,-19 -17,-19 -10,0 -19,8 -19,19 0,10 8,19 19,19z"/>
  <path class="fil1" d="M10757 2730c12,0 23,-10 23,-25 0,-12 -10,-23 -23,-23 -12,0 -23,10 -23,23 0,15 10,25 23,25z"/>
  <path class="fil1" d="M10625 2579c19,0 33,-14 33,-33 0,-16 -14,-33 -33,-33 -16,0 -33,17 -33,33 0,19 17,33 33,33z"/>
  <path class="fil1" d="M10501 2402c19,0 33,-14 33,-33 0,-16 -14,-31 -33,-31 -19,0 -33,14 -33,31 0,19 14,33 33,33z"/>
  <path class="fil1" d="M10363 2239c19,0 33,-14 33,-33 0,-16 -14,-31 -33,-31 -16,0 -33,14 -33,31 0,19 17,33 33,33z"/>
  <path class="fil1" d="M10229 2329c-16,6 -29,23 -29,43 0,21 12,37 29,43 6,2 10,2 16,2 25,0 45,-21 45,-45 0,-25 -21,-45 -45,-45 -6,0 -10,0 -16,2z"/>
  <path class="fil1" d="M10229 2069c19,0 33,-14 33,-31 0,-19 -14,-33 -33,-33 -16,0 -31,14 -31,33 0,16 15,31 31,31z"/>
  <path class="fil1" d="M10090 2168c-12,6 -23,21 -23,35 0,17 10,31 23,37 6,4 12,6 21,6 23,0 43,-19 43,-43 0,-23 -21,-41 -43,-41 -8,0 -14,2 -21,6z"/>
  <path class="fil1" d="M10090 1898c16,0 31,-12 31,-31 0,-16 -15,-31 -31,-31 -19,0 -33,14 -33,31 0,19 14,31 33,31z"/>
  <path class="fil1" d="M9948 1999c-12,8 -21,23 -21,37 0,17 8,29 21,37 8,6 16,8 27,8 25,0 45,-21 45,-45 0,-25 -21,-45 -45,-45 -10,0 -19,4 -27,8z"/>
  <path class="fil1" d="M9948 1727c19,0 33,-12 33,-31 0,-16 -14,-31 -33,-31 -19,0 -33,14 -33,31 0,19 14,31 33,31z"/>
  <path class="fil1" d="M9812 1820c-16,8 -29,25 -29,45 0,21 12,37 29,45 6,2 14,4 21,4 29,0 49,-23 49,-49 0,-27 -21,-50 -49,-50 -6,0 -14,2 -21,4z"/>
  <path class="fil1" d="M9812 1558c19,0 33,-14 33,-31 0,-19 -14,-33 -33,-33 -16,0 -31,14 -31,33 0,17 15,31 31,31z"/>
  <path class="fil1" d="M9663 1981c-8,10 -12,21 -12,35 0,12 4,25 12,33 10,14 27,23 45,23 33,0 58,-25 58,-56 0,-31 -25,-58 -58,-58 -19,0 -35,10 -45,23z"/>
  <path class="fil1" d="M9663 1401c12,0 23,-10 23,-23 0,-12 -10,-23 -23,-23 -12,0 -23,10 -23,23 0,12 10,23 23,23z"/>
  <path class="fil1" d="M9647 1692c0,14 6,27 16,37 8,8 21,12 33,12 29,0 52,-23 52,-49 0,-27 -23,-47 -52,-47 -12,0 -25,4 -33,12 -10,8 -16,21 -16,35z"/>
  <path class="fil1" d="M9566 1568c25,0 43,-21 43,-43 0,-25 -18,-43 -43,-43 -25,0 -43,19 -43,43 0,23 18,43 43,43z"/>
  <path class="fil1" d="M9566 1913l4 0c31,0 54,-25 54,-54 0,-29 -23,-52 -54,-52l-4 0c-27,2 -49,25 -49,52 0,27 23,49 49,54z"/>
  <path class="fil1" d="M9430 1395c19,0 35,-16 35,-37 0,-19 -16,-35 -35,-35 -21,0 -37,17 -37,35 0,21 16,37 37,37z"/>
  <path class="fil1" d="M9430 1743c27,0 52,-23 52,-49 0,-29 -25,-52 -52,-52 -29,0 -52,23 -52,52 0,27 23,49 52,49z"/>
  <path class="fil1" d="M9282 1203c4,2 8,2 12,2 14,0 27,-12 27,-27 0,-16 -12,-29 -27,-29 -4,0 -8,2 -12,2 -8,4 -16,15 -16,27 0,10 8,21 16,25z"/>
  <path class="fil1" d="M9282 1578c27,0 49,-21 49,-47 0,-27 -23,-47 -49,-47 -27,0 -47,21 -47,47 0,27 21,47 47,47z"/>
  <path class="fil1" d="M9282 1941l10 0c43,0 78,-35 78,-76 0,-43 -35,-78 -78,-78l-10 0c-39,4 -70,37 -70,78 0,39 31,72 70,76z"/>
  <path class="fil1" d="M9149 1611c-35,4 -64,33 -64,68 0,37 29,66 64,70l6 0c39,0 70,-31 70,-70 0,-37 -31,-68 -70,-68l-6 0z"/>
  <path class="fil1" d="M9149 1046c14,0 25,-12 25,-27 0,-12 -10,-25 -25,-25 -14,0 -25,12 -25,25 0,14 10,27 25,27z"/>
  <path class="fil1" d="M9149 1403c27,0 49,-21 49,-47 0,-27 -23,-47 -49,-47 -25,0 -47,21 -47,47 0,27 23,47 47,47z"/>
  <path class="fil1" d="M9011 889c10,-2 19,-10 19,-21 0,-10 -8,-19 -19,-19 -10,0 -19,8 -19,19 0,10 8,21 19,21z"/>
  <path class="fil1" d="M9011 1225c25,0 45,-21 45,-43 0,-25 -21,-43 -45,-43 -23,0 -43,19 -43,43 0,23 21,43 43,43z"/>
  <path class="fil1" d="M9011 1595l6 0c37,0 68,-31 68,-70 0,-37 -31,-68 -68,-68l-6 0c-31,2 -56,25 -62,54 -2,4 -2,10 -2,15 0,6 0,12 2,16 6,29 31,52 62,54z"/>
  <path class="fil1" d="M8875 1582c-6,0 -12,-2 -19,-2 -27,0 -49,10 -66,27 -19,16 -29,39 -29,66 0,27 10,50 29,66 17,17 39,27 66,27 6,0 12,-2 19,-2 37,-8 66,-35 74,-72 0,-6 2,-12 2,-19 0,-6 -2,-12 -2,-19 -8,-37 -37,-64 -74,-72z"/>
  <path class="fil1" d="M8873 1025l2 0c17,0 33,-17 33,-33 0,-19 -16,-35 -33,-35l-2 0c-19,0 -33,16 -33,35 0,19 14,33 33,33z"/>
  <path class="fil1" d="M8875 1415c35,0 62,-27 62,-62 0,-33 -27,-62 -62,-62 -35,0 -64,29 -64,62 0,35 29,62 64,62z"/>
  <path class="fil1" d="M8733 871l2 0c14,0 29,-12 29,-29 0,-17 -15,-29 -29,-29l-2 0c-14,0 -27,12 -27,29 0,16 12,29 27,29z"/>
  <path class="fil1" d="M8733 1230c31,0 56,-23 56,-54 0,-31 -25,-54 -56,-54 -29,0 -54,23 -54,54 0,31 25,54 54,54z"/>
  <path class="fil1" d="M8733 1585c6,0 10,2 16,2 15,0 29,-6 41,-14 16,-12 29,-35 29,-58 0,-23 -12,-43 -29,-58 -12,-8 -29,-14 -45,-14 -4,0 -8,0 -12,2 -33,4 -58,35 -58,70 0,35 25,64 58,70z"/>
  <path class="fil1" d="M8599 697c2,2 4,2 4,2 15,0 25,-12 25,-25 0,-14 -10,-25 -25,-25l-4 0c-10,4 -19,12 -19,25 0,10 8,21 19,23z"/>
  <path class="fil1" d="M8599 1067c29,0 52,-23 52,-52 0,-27 -23,-50 -52,-50 -27,0 -50,23 -50,50 0,29 23,50 50,52z"/>
  <path class="fil1" d="M8539 1397c14,16 35,29 60,29 41,0 74,-33 74,-74 0,-39 -33,-72 -74,-72 -25,0 -45,10 -60,29 -10,12 -14,27 -14,43 0,17 4,33 14,45z"/>
  <path class="fil1" d="M8460 885l2 0c21,-2 35,-19 35,-37 0,-21 -14,-37 -35,-39l-2 0c-23,0 -39,16 -39,39 0,21 17,37 39,37z"/>
  <path class="fil1" d="M8462 1240c35,0 62,-29 62,-62 0,-33 -27,-62 -62,-62 -35,0 -62,29 -62,62 0,33 27,62 62,62z"/>
  <path class="fil1" d="M8374 1492c0,16 4,31 12,45 16,25 43,41 76,41l2 0c31,0 58,-14 74,-39 10,-12 17,-31 17,-47 0,-19 -6,-35 -17,-49 -16,-25 -43,-39 -74,-39l-2 0c-33,0 -60,16 -76,41 -8,14 -12,31 -12,47z"/>
  <path class="fil1" d="M8347 522c10,0 19,-8 19,-19 0,-12 -8,-21 -19,-21 -10,0 -19,8 -19,21 0,10 8,19 19,19z"/>
  <path class="fil1" d="M8324 710c2,0 4,2 6,2 21,0 35,-16 35,-35 0,-21 -14,-35 -35,-35l-6 0c-16,4 -27,16 -27,35 0,16 10,31 27,33z"/>
  <path class="fil1" d="M8324 1062c2,2 6,2 8,2 25,0 45,-16 54,-37 2,-6 4,-12 4,-19 0,-6 -2,-14 -4,-19 -8,-23 -29,-37 -54,-37l-8 0c-27,6 -47,29 -47,56 0,27 21,49 47,54z"/>
  <path class="fil1" d="M8258 1378c12,23 37,39 66,39 25,0 47,-12 62,-31 8,-12 12,-27 12,-41 0,-16 -4,-31 -12,-41 -14,-21 -37,-33 -62,-33 -29,0 -54,17 -66,39 -6,10 -8,23 -8,35 0,10 2,23 8,33z"/>
  <path class="fil1" d="M8184 538c14,0 27,-12 27,-27 0,-16 -12,-29 -27,-29 -14,0 -27,12 -27,29 0,14 12,27 27,27z"/>
  <path class="fil1" d="M8184 899c2,2 2,2 4,2 27,0 50,-23 50,-52 0,-27 -23,-50 -50,-50l-4 0c-27,2 -47,23 -47,50 0,27 21,49 47,49z"/>
  <path class="fil1" d="M8184 1242c37,0 66,-29 66,-64 0,-37 -29,-66 -66,-66 -37,0 -66,29 -66,66 0,35 29,64 66,64z"/>
  <path class="fil1" d="M8173 1589c2,0 6,0 10,-2 33,-4 60,-25 74,-56 4,-12 8,-27 8,-41 0,-14 -4,-29 -8,-41 -14,-31 -41,-54 -74,-58l-10 0c-25,0 -47,10 -64,27 -19,19 -31,43 -31,72 0,29 12,54 31,72 16,17 39,27 64,27z"/>
  <path class="fil1" d="M8138 1333c0,-27 -12,-52 -29,-68 -15,-10 -33,-19 -52,-19 -35,0 -66,25 -76,58 -2,8 -4,18 -4,29 0,8 2,19 4,27 10,33 41,58 76,58 19,0 37,-6 52,-18 16,-17 29,-41 29,-66z"/>
  <path class="fil1" d="M8048 361c4,0 8,0 10,-2 6,-4 8,-10 8,-17 0,-8 -2,-14 -8,-19 -2,0 -6,-2 -10,-2 -10,0 -19,8 -19,21 0,10 8,19 19,19z"/>
  <path class="fil1" d="M8056 712l2 0c23,-2 41,-21 41,-43 0,-23 -18,-41 -41,-43l-2 0c-23,0 -43,21 -43,43 0,23 21,43 43,43z"/>
  <path class="fil1" d="M8050 1069l8 0c23,-4 43,-19 52,-39 2,-8 4,-14 4,-25 0,-8 -2,-15 -4,-23 -8,-21 -29,-35 -52,-39l-8 0c-35,0 -64,29 -64,62 0,35 29,64 64,64z"/>
  <path class="fil1" d="M7909 536c6,2 10,4 16,4 19,0 35,-16 35,-35 0,-19 -17,-35 -35,-35 -6,0 -10,2 -16,4 -10,6 -19,19 -19,31 0,14 8,25 19,31z"/>
  <path class="fil1" d="M7909 889l6 0c33,0 60,-27 60,-58 0,-33 -27,-58 -60,-58l-6 0c-29,2 -52,27 -52,58 0,29 23,54 52,58z"/>
  <path class="fil1" d="M7909 1261c33,0 62,-23 72,-54 2,-8 4,-16 4,-27 0,-8 -2,-19 -4,-27 -10,-31 -39,-54 -72,-54 -41,0 -74,37 -74,80 0,45 33,80 74,80z"/>
  <path class="fil1" d="M7643 1095c-49,0 -91,41 -91,91 0,48 41,89 91,89 47,0 89,-41 89,-89 0,-49 -41,-91 -89,-91z"/>
  <path class="fil1" d="M7769 361c10,0 19,-8 19,-19 0,-10 -8,-19 -19,-19 -8,0 -16,8 -16,19 0,10 8,19 16,19z"/>
  <path class="fil1" d="M7769 728c29,0 52,-23 52,-49 0,-27 -23,-50 -52,-50 -27,0 -49,23 -49,50 0,27 23,49 49,49z"/>
  <path class="fil1" d="M7771 1095c43,0 80,-35 80,-78 0,-45 -37,-80 -80,-80 -43,0 -80,35 -80,80 0,43 37,78 80,78z"/>
  <path class="fil1" d="M7641 216l2 0c8,-2 17,-10 17,-21 0,-10 -8,-19 -17,-19l-2 0c-10,0 -19,8 -19,19 0,12 8,21 19,21z"/>
  <path class="fil1" d="M7637 549l6 0c16,-4 31,-21 31,-39 0,-19 -14,-35 -31,-37l-6 0c-21,0 -39,16 -39,37 0,21 19,39 39,39z"/>
  <path class="fil1" d="M7635 895l8 0c29,-4 54,-29 54,-60 0,-31 -25,-58 -54,-60 -4,0 -6,-2 -8,-2 -33,0 -60,29 -60,62 0,33 27,60 60,60z"/>
  <path class="fil1" d="M7497 359c2,0 4,2 6,2 14,0 27,-12 27,-29 0,-14 -12,-27 -27,-27l-6 0c-12,4 -23,14 -23,27 0,14 10,25 23,27z"/>
  <path class="fil1" d="M7497 726l2 0c29,0 54,-25 54,-54 0,-31 -25,-56 -54,-56l-2 0c-29,2 -54,27 -54,56 0,29 25,54 54,54z"/>
  <path class="fil1" d="M7497 1087c39,0 72,-35 72,-76 0,-41 -33,-76 -72,-76 -39,2 -72,35 -72,76 0,41 33,74 72,76z"/>
  <path class="fil1" d="M7352 1089c-43,0 -81,37 -81,83 0,47 37,85 81,85 43,0 78,-37 78,-85 0,-45 -35,-83 -78,-83z"/>
  <path class="fil1" d="M7373 188c10,0 19,-10 19,-21 0,-10 -8,-19 -19,-19 -10,0 -21,8 -21,19 0,10 10,21 21,21z"/>
  <path class="fil1" d="M7352 547l2 0c21,0 37,-16 37,-37 0,-19 -17,-37 -37,-37 -2,0 -2,2 -2,2 -21,0 -35,17 -35,35 0,21 14,37 35,37z"/>
  <path class="fil1" d="M7352 895l4 0c35,0 62,-29 62,-66 0,-37 -27,-66 -62,-66l-4 0c-33,2 -58,31 -58,66 0,35 25,64 58,66z"/>
  <path class="fil1" d="M7226 1083c37,0 70,-33 70,-74 0,-41 -33,-74 -70,-74 -25,0 -45,14 -58,33 -8,12 -12,27 -12,41 0,17 4,29 12,41 12,21 33,33 58,33z"/>
  <path class="fil1" d="M7212 728c31,0 56,-27 56,-58 0,-33 -25,-60 -56,-60 -19,0 -33,10 -43,25 -8,8 -12,21 -12,35 0,12 4,25 12,35 10,14 25,23 43,23z"/>
  <path class="fil1" d="M7218 351c16,0 27,-12 27,-27 0,-14 -10,-27 -27,-27 -14,0 -27,12 -27,27 0,14 12,27 27,27z"/>
  <path class="fil1" d="M7218 47c10,0 19,-8 19,-16 0,-10 -8,-19 -19,-19 -8,0 -16,8 -16,19 0,8 8,16 16,16z"/>
  <path class="fil1" d="M7169 1207c6,-14 10,-31 10,-47 0,-16 -4,-33 -10,-47 -16,-31 -49,-52 -89,-52 -23,0 -45,8 -64,23 -21,19 -33,45 -33,76 0,29 12,58 33,74 19,14 41,25 64,25 39,0 72,-21 89,-52z"/>
  <path class="fil1" d="M7074 902c33,0 60,-27 60,-62 0,-35 -27,-64 -60,-64 -27,0 -49,19 -58,45 0,4 -2,10 -2,19 0,6 2,12 2,19 8,25 31,43 58,43z"/>
  <path class="fil1" d="M7078 188c10,0 19,-10 19,-21 0,-10 -8,-21 -19,-21 -10,0 -19,10 -19,21 0,10 8,21 19,21z"/>
  <path class="fil1" d="M7072 534c21,0 37,-16 37,-39 0,-21 -16,-37 -37,-37 -21,0 -37,16 -37,37 0,23 16,39 37,39z"/>
  <path class="fil1" d="M6946 899c-31,0 -60,23 -70,52 -2,8 -4,16 -4,27 0,8 2,16 4,25 10,31 39,54 70,54 35,0 62,-25 70,-58 2,-8 4,-14 4,-21 0,-8 -2,-15 -4,-21 -8,-33 -35,-58 -70,-58z"/>
  <path class="fil1" d="M6917 328c0,16 12,29 27,29 14,0 27,-12 27,-29 0,-14 -12,-27 -27,-27 -14,0 -27,12 -27,27z"/>
  <path class="fil1" d="M6948 741c31,0 58,-29 58,-64 0,-33 -27,-62 -58,-62 -33,0 -60,29 -60,62 0,35 27,64 60,64z"/>
  <path class="fil1" d="M6933 39c10,0 19,-8 19,-19 0,-10 -8,-19 -19,-19 -10,0 -19,8 -19,19 0,10 8,19 19,19z"/>
  <path class="fil1" d="M6818 906c27,0 50,-16 58,-43 4,-6 4,-15 4,-23 0,-8 0,-16 -4,-23 -8,-25 -31,-43 -58,-43 -35,0 -62,29 -62,66 0,37 27,66 62,66z"/>
  <path class="fil1" d="M6766 1248c14,9 39,21 53,17 10,0 43,-5 52,-8 6,-9 3,-7 14,-15 6,-4 3,-15 10,-18 12,-17 19,-38 19,-60 0,-31 -14,-62 -39,-80 -14,-12 -35,-21 -56,-21 -54,0 -97,45 -97,101 2,23 15,51 27,68 11,7 8,5 16,16z"/>
  <path class="fil1" d="M6816 181c10,0 19,-8 19,-19 0,-10 -8,-21 -19,-21 -8,0 -17,10 -17,21 0,10 8,19 17,19z"/>
  <path class="fil1" d="M6700 39c10,0 19,-10 19,-21 0,-10 -8,-19 -19,-19 -8,0 -19,8 -19,19 0,10 10,21 19,21z"/>
  <path class="fil1" d="M6694 369c16,0 31,-14 31,-33 0,-16 -14,-31 -31,-31 -14,0 -29,14 -29,31 0,19 14,33 29,33z"/>
  <path class="fil1" d="M6820 549c21,0 39,-21 39,-43 0,-25 -19,-43 -39,-43 -23,0 -41,19 -41,43 0,23 19,43 41,43z"/>
  <path class="fil1" d="M6692 739c29,0 52,-25 52,-56 0,-29 -23,-54 -52,-54 -27,0 -52,25 -52,54 0,31 25,56 52,56z"/>
  <path class="fil1" d="M6700 1058c37,0 70,-33 70,-74 0,-41 -33,-76 -70,-76 -39,0 -70,35 -70,76 0,41 31,74 70,74z"/>
  <path class="fil1" d="M6560 198c14,0 27,-14 27,-29 0,-17 -12,-29 -27,-29 -17,0 -29,12 -29,29 0,14 12,29 29,29z"/>
  <path class="fil1" d="M6560 542l4 0c23,0 41,-19 41,-43 0,-23 -19,-41 -41,-41l-4 0c-21,2 -35,21 -35,41 0,23 14,41 35,43z"/>
  <path class="fil1" d="M6560 906l6 0c33,0 60,-29 60,-64 0,-35 -27,-62 -60,-62l-6 0c-29,4 -54,31 -54,62 0,33 25,60 54,64z"/>
  <path class="fil1" d="M6419 1087c25,0 47,-12 60,-33 8,-12 14,-29 14,-45 0,-19 -6,-35 -14,-47 -12,-19 -35,-33 -60,-33 -39,0 -72,37 -72,80 0,41 33,78 72,78z"/>
  <path class="fil1" d="M6424 39c8,0 14,-6 14,-14 0,-8 -6,-17 -14,-17 -6,0 -12,8 -12,17 0,8 6,14 12,14z"/>
  <path class="fil1" d="M6417 357c16,0 29,-14 29,-33 0,-16 -12,-31 -29,-31 -17,0 -29,14 -29,31 0,19 12,33 29,33z"/>
  <path class="fil1" d="M6417 724c27,0 47,-23 47,-52 0,-29 -21,-52 -47,-52 -27,0 -47,23 -47,52 0,29 21,52 47,52z"/>
  <path class="fil1" d="M6279 190c4,0 6,-2 8,-2 6,-4 10,-10 10,-19 0,-8 -4,-14 -10,-16 -2,-2 -4,-2 -8,-2 -10,0 -19,8 -19,19 0,10 8,21 19,21z"/>
  <path class="fil1" d="M6285 547l2 0c19,0 33,-16 33,-35 0,-19 -14,-33 -33,-35l-2 0c-16,0 -33,16 -33,35 0,21 17,35 33,35z"/>
  <path class="fil1" d="M6281 893l6 0c31,-4 54,-31 54,-64 0,-33 -23,-60 -54,-64l-6 0c-33,0 -58,29 -58,64 0,35 25,64 58,64z"/>
  <path class="fil1" d="M6217 1139c-6,12 -8,27 -8,41 0,14 2,27 8,39 14,29 39,47 70,47 45,0 83,-39 83,-87 0,-50 -37,-89 -83,-89 -31,0 -56,21 -70,47z"/>
  <path class="fil1" d="M6153 1093c27,0 52,-14 64,-39 6,-12 10,-25 10,-39 0,-14 -4,-27 -10,-37 -12,-25 -37,-41 -64,-41 -41,0 -74,35 -74,78 0,43 33,78 74,78z"/>
  <path class="fil1" d="M6005 1100c-25,0 -45,12 -60,31 -12,14 -19,33 -19,54 0,18 6,37 19,52 14,19 35,31 60,31 43,0 78,-37 78,-83 0,-45 -35,-85 -78,-85z"/>
  <path class="fil1" d="M6147 351c10,0 19,-8 19,-19 0,-10 -8,-21 -19,-21 -10,0 -19,10 -19,21 0,10 8,19 19,19z"/>
  <path class="fil1" d="M6149 736c33,0 58,-27 58,-62 0,-33 -25,-62 -58,-62 -31,0 -58,29 -58,62 0,35 27,62 58,62z"/>
  <path class="fil1" d="M6005 214l6 0c6,0 12,-6 12,-14 0,-8 -6,-14 -12,-14l-6 0c-4,2 -8,8 -8,14 0,6 4,12 8,14z"/>
  <path class="fil1" d="M6005 536l6 0c16,0 29,-14 29,-31 0,-19 -12,-33 -29,-33 -2,0 -4,2 -6,2 -14,2 -25,14 -25,31 0,17 10,29 25,31z"/>
  <path class="fil1" d="M6005 899l8 0c33,0 60,-29 60,-64 0,-33 -27,-62 -60,-62l-8 0c-29,4 -49,31 -49,62 0,33 21,58 49,64z"/>
  <path class="fil1" d="M5945 1395c10,-16 17,-35 17,-56 0,-23 -6,-41 -17,-58 -16,-23 -43,-37 -72,-37 -31,0 -60,16 -74,43 -10,14 -14,31 -14,52 0,19 4,35 14,50 14,27 43,43 74,43 16,0 30,-4 43,-12 8,-10 17,-18 29,-25z"/>
  <path class="fil1" d="M5873 365c2,2 4,2 6,2 8,0 14,-8 14,-16 0,-10 -6,-17 -14,-17 -2,0 -4,0 -6,2 -6,2 -10,8 -10,14 0,6 4,12 10,14z"/>
  <path class="fil1" d="M5873 720l2 0c27,0 45,-21 45,-47 0,-27 -19,-50 -45,-50l-2 0c-25,2 -43,23 -43,50 0,25 19,45 43,47z"/>
  <path class="fil1" d="M5873 1087l4 0c31,0 58,-23 68,-56 0,-6 2,-12 2,-19 0,-8 -2,-14 -2,-21 -10,-31 -37,-56 -68,-56l-4 0c-37,4 -66,35 -66,76 0,39 29,72 66,74z"/>
  <path class="fil1" d="M5720 538c6,0 12,-2 16,-6 8,-6 15,-14 15,-25 0,-12 -6,-21 -15,-27 -4,-4 -10,-6 -16,-6 -16,0 -31,14 -31,33 0,17 14,31 31,31z"/>
  <path class="fil1" d="M5728 895l8 0c27,-6 47,-29 47,-58 0,-29 -21,-54 -47,-58 -2,0 -4,-2 -8,-2 -29,0 -54,27 -54,60 0,31 25,58 54,58z"/>
  <path class="fil1" d="M5736 1261c25,0 47,-12 62,-33 8,-12 14,-29 14,-47 0,-16 -6,-33 -14,-45 -14,-21 -37,-33 -62,-33 -27,0 -52,17 -64,41 -6,12 -10,25 -10,37 0,14 4,27 10,39 12,25 37,41 64,41z"/>
  <path class="fil1" d="M5598 359l2 0c8,0 17,-6 17,-16 0,-8 -8,-17 -17,-17l-2 0c-8,2 -12,8 -12,17 0,8 4,14 12,16z"/>
  <path class="fil1" d="M5588 708l10 0c14,-6 27,-21 27,-39 0,-19 -12,-33 -27,-39l-10 0c-23,0 -39,17 -39,39 0,23 17,39 39,39z"/>
  <path class="fil1" d="M5598 1065l2 0c33,0 58,-27 58,-62 0,-33 -25,-62 -58,-62l-2 0c-31,2 -56,29 -56,62 0,33 25,60 56,62z"/>
  <path class="fil1" d="M5514 1333c0,16 4,31 10,43 15,27 41,45 74,45 31,0 60,-21 74,-50 4,-10 8,-25 8,-39 0,-14 -4,-29 -8,-39 -14,-29 -43,-49 -74,-49 -33,0 -60,19 -74,45 -6,12 -10,27 -10,43z"/>
  <path class="fil1" d="M5479 1401l-16 0c-35,8 -64,35 -72,72 -2,8 -4,16 -4,25 0,8 2,17 4,25 8,37 37,64 72,72l16 0c16,0 33,-4 45,-12 27,-19 45,-49 45,-85 0,-35 -19,-68 -45,-85 -12,-8 -29,-12 -45,-12z"/>
  <path class="fil1" d="M5462 534c12,0 21,-10 21,-23 0,-12 -8,-23 -21,-23 -12,0 -21,10 -21,23 0,12 8,23 21,23z"/>
  <path class="fil1" d="M5458 887l4 0c21,-2 37,-21 37,-43 0,-23 -16,-41 -37,-43l-4 0c-23,0 -41,19 -41,43 0,25 19,43 41,43z"/>
  <path class="fil1" d="M5462 1258c27,0 49,-14 62,-37 8,-12 10,-25 10,-41 0,-14 -2,-27 -10,-39 -12,-23 -35,-37 -62,-37 -39,0 -70,31 -72,72l0 10c2,41 33,72 72,72z"/>
  <path class="fil1" d="M5295 672c0,16 10,27 25,27l4 0c10,-2 21,-12 21,-27 0,-12 -10,-23 -21,-25l-4 0c-14,0 -25,10 -25,25z"/>
  <path class="fil1" d="M5313 1071l10 0c25,-4 45,-29 45,-58 0,-31 -21,-54 -45,-60l-10 0c-25,0 -45,16 -52,39 -2,6 -4,12 -4,21 0,6 2,12 4,19 6,23 27,39 52,39z"/>
  <path class="fil1" d="M5324 1415c31,0 56,-21 66,-52 2,-6 2,-14 2,-23 0,-6 0,-14 -2,-21 -10,-31 -35,-52 -66,-52 -27,0 -52,17 -62,39 -6,10 -8,21 -8,33 0,12 2,25 8,35 10,23 35,39 62,39z"/>
  <path class="fil1" d="M5303 512c8,0 14,-6 14,-14 0,-8 -6,-14 -14,-14 -8,0 -14,6 -14,14 0,8 6,14 14,14z"/>
  <path class="fil1" d="M5188 1407l-4 0c-33,0 -62,21 -76,52 -6,12 -8,25 -8,39 0,15 2,29 8,41 14,29 43,49 76,49l4 0c33,-2 60,-23 74,-54 4,-10 6,-23 6,-37 0,-12 -2,-25 -6,-37 -14,-31 -41,-52 -74,-54z"/>
  <path class="fil1" d="M5188 887l2 0c21,0 37,-19 37,-39 0,-23 -17,-41 -37,-41l-2 0c-21,2 -37,19 -37,41 0,21 16,39 37,39z"/>
  <path class="fil1" d="M5188 1240c33,0 60,-29 60,-64 0,-35 -27,-62 -60,-62 -33,0 -60,27 -60,62 0,35 27,64 60,64z"/>
  <path class="fil1" d="M5043 699c2,0 4,0 6,-2 8,-2 14,-10 14,-21 0,-8 -6,-19 -14,-21l-6 0c-12,0 -21,8 -21,21 0,12 8,23 21,23z"/>
  <path class="fil1" d="M5047 1065l2 0c23,0 41,-21 41,-45 0,-27 -19,-47 -41,-47l-2 0c-25,0 -43,21 -43,47 0,25 19,45 43,45z"/>
  <path class="fil1" d="M5049 1430c25,0 47,-14 58,-35 6,-10 10,-23 10,-35 0,-15 -4,-25 -10,-37 -10,-21 -33,-35 -58,-35 -37,0 -68,33 -68,72 0,39 31,70 68,70z"/>
  <path class="fil1" d="M4899 871l10 0c19,0 29,-12 27,-29 0,-17 -12,-29 -27,-29l-10 0c-10,4 -19,17 -19,29 0,12 6,25 19,29z"/>
  <path class="fil1" d="M4899 1225c6,2 12,4 19,4 27,0 50,-23 50,-52 0,-29 -23,-54 -50,-54 -6,0 -12,2 -19,4 -19,8 -31,27 -31,49 0,21 12,41 31,47z"/>
  <path class="fil1" d="M4855 1570c12,10 27,19 43,19 39,0 70,-33 70,-74 0,-39 -31,-72 -70,-72 -16,0 -31,6 -43,16 -14,12 -25,33 -25,56 0,23 10,43 25,56z"/>
  <path class="fil1" d="M4777 1029c4,0 10,-2 14,-4 10,-6 17,-16 17,-31 0,-12 -6,-23 -17,-29 -4,-2 -10,-4 -14,-4 -19,0 -33,14 -33,33 0,19 14,35 33,35z"/>
  <path class="fil1" d="M4775 1415c6,0 10,-2 16,-2 23,-8 39,-31 39,-58 0,-27 -16,-49 -39,-58 -6,0 -10,-2 -16,-2 -31,0 -56,27 -56,60 0,33 25,60 56,60z"/>
  <path class="fil1" d="M4791 1770c25,0 47,-10 64,-29 15,-17 25,-39 25,-64 0,-27 -10,-49 -25,-66 -16,-19 -39,-29 -64,-29 -49,0 -89,41 -89,95 0,52 39,93 89,93z"/>
  <path class="fil1" d="M4635 879l2 0c8,0 14,-6 14,-14 0,-8 -6,-14 -14,-14l-2 0c-6,0 -12,6 -12,14 0,8 6,14 12,14z"/>
  <path class="fil1" d="M4635 1228l2 0c25,0 43,-21 43,-45 0,-25 -19,-45 -43,-45l-2 2c-23,0 -39,21 -39,43 0,25 17,43 39,45z"/>
  <path class="fil1" d="M4635 1587c33,0 60,-27 60,-62 0,-35 -27,-64 -60,-64 -33,0 -58,29 -58,64 0,35 25,62 58,62z"/>
  <path class="fil1" d="M4490 1040c4,2 6,4 10,4 12,0 23,-10 23,-25 0,-12 -10,-23 -23,-23 -4,0 -6,2 -10,2 -6,4 -12,12 -12,21 0,10 6,19 12,21z"/>
  <path class="fil1" d="M4490 1401l8 0c25,0 43,-19 43,-43 0,-25 -19,-45 -43,-45l-8 0c-19,4 -33,23 -33,45 0,21 14,39 33,43z"/>
  <path class="fil1" d="M4490 1758c39,0 70,-33 70,-74 0,-41 -31,-76 -70,-76 -39,0 -70,35 -70,76 0,41 31,74 70,74z"/>
  <path class="fil1" d="M4354 1201c12,0 23,-10 23,-25 0,-12 -10,-23 -23,-23 -12,0 -21,10 -21,23 0,15 8,25 21,25z"/>
  <path class="fil1" d="M4354 1582c4,2 8,2 12,2 25,0 47,-23 47,-52 0,-27 -23,-52 -47,-52 -4,0 -8,2 -12,2 -21,6 -37,27 -37,50 0,25 17,45 37,49z"/>
  <path class="fil1" d="M4354 1939c41,0 74,-35 74,-80 0,-43 -33,-78 -74,-78 -41,0 -74,35 -74,78 0,45 33,80 74,80z"/>
  <path class="fil1" d="M4222 1389l2 0c17,0 31,-16 31,-33 0,-19 -14,-35 -31,-35l-2 0c-16,0 -31,16 -31,35 0,19 14,33 31,33z"/>
  <path class="fil1" d="M4224 1743c25,0 45,-23 45,-49 0,-27 -21,-49 -45,-49 -27,0 -47,23 -47,49 0,27 21,49 47,49z"/>
  <path class="fil1" d="M4075 1568c4,2 6,2 10,2 23,0 39,-21 39,-43 0,-25 -16,-43 -39,-43l-10 0c-17,4 -31,23 -31,43 0,21 14,37 31,41z"/>
  <path class="fil1" d="M4075 1917c29,0 52,-25 52,-54 0,-29 -23,-54 -52,-54 -27,0 -49,25 -49,54 0,29 23,54 49,54z"/>
  <path class="fil1" d="M3983 1401c8,0 16,-8 16,-16 0,-10 -8,-17 -16,-17 -8,0 -14,6 -14,17 0,8 6,16 14,16z"/>
  <path class="fil1" d="M3939 1733c2,0 6,2 10,2 15,0 27,-8 33,-19 4,-8 8,-16 8,-25 0,-10 -4,-19 -8,-25 -6,-12 -18,-19 -33,-19l-10 0c-19,6 -31,23 -31,43 0,19 12,37 31,41z"/>
  <path class="fil1" d="M3939 2074c17,0 33,-8 43,-23 8,-10 15,-25 15,-39 0,-14 -6,-29 -15,-39 -10,-14 -27,-23 -43,-23 -31,0 -58,29 -58,62 0,33 27,62 58,62z"/>
  <path class="fil1" d="M3822 1543c4,4 8,4 12,4 14,2 25,-10 25,-25 0,-14 -10,-27 -25,-27 -4,0 -8,2 -12,4 -6,4 -12,12 -12,23 0,8 6,16 12,21z"/>
  <path class="fil1" d="M3822 1906c23,0 41,-21 41,-43 0,-25 -19,-43 -41,-43 -23,0 -41,19 -41,43 0,23 19,43 41,43z"/>
  <path class="fil1" d="M3700 1725c17,0 29,-12 29,-29 0,-17 -12,-31 -27,-31 -12,0 -21,6 -27,17 -2,4 -2,8 -2,14 0,4 0,10 2,14 6,8 15,14 25,14z"/>
  <path class="fil1" d="M3675 2084c27,0 47,-21 47,-47 0,-27 -21,-49 -47,-49 -25,0 -45,23 -45,49 0,27 21,47 45,47z"/>
  <path class="fil1" d="M3562 1900c19,0 35,-17 35,-35 0,-21 -14,-37 -33,-37 -12,0 -25,6 -29,19 -4,4 -6,10 -6,17 0,8 2,14 6,18 4,10 16,19 27,19z"/>
  <path class="fil1" d="M3535 2253c25,0 45,-21 45,-47 0,-27 -21,-47 -45,-47 -27,0 -47,21 -47,47 0,27 21,47 47,47z"/>
  <path class="fil1" d="M3427 2072c16,0 31,-14 31,-33 0,-19 -15,-33 -31,-33 -12,0 -21,6 -27,17 -2,4 -4,10 -4,16 0,6 2,12 4,16 6,10 14,17 27,17z"/>
  <path class="fil1" d="M3401 2422c25,0 45,-23 45,-47 0,-27 -21,-49 -45,-49 -25,0 -45,23 -45,49 0,25 21,47 45,47z"/>
  <path class="fil1" d="M3310 2538c-1,-23 -26,-46 -47,-48 -25,0 -45,23 -45,50 0,20 11,36 27,44 6,-4 12,-9 18,-13 16,-11 32,-22 47,-33z"/>
  <path class="fil1" d="M3285 2232c16,0 31,-14 31,-31 0,-19 -15,-33 -31,-33 -8,0 -16,2 -23,8 -4,6 -8,14 -8,25 0,8 4,16 8,23 6,6 14,8 23,8z"/>
  <path class="fil1" d="M3147 2400c16,0 27,-14 27,-29 0,-17 -12,-29 -27,-29 -14,0 -27,12 -27,29 0,14 12,29 27,29z"/>
  <path class="fil1" d="M3023 2567c14,0 25,-10 23,-25 0,-12 -10,-23 -23,-23 -12,0 -23,10 -23,25 0,12 10,23 23,23z"/>
  <path class="fil1" d="M2889 2721c10,-2 19,-10 19,-23 0,-10 -8,-19 -19,-19l-2 0c-10,0 -19,8 -19,21 0,10 10,21 21,21z"/>
  <path class="fil1" d="M2767 2899c8,0 14,-8 14,-16 0,-10 -6,-17 -14,-17 -8,0 -16,6 -16,17 0,8 8,16 16,16z"/>
 </g>
</svg>
